# xmcd
#
# Track frame offsets:
#        150
#        17422
#        35860
#        56585
#        76805
#        95312
#        114590
#        135765
#        155117
#        178657
#        196382
#        218120
#        244727
#
# Disc length: 3450 seconds
#
# Revision: 0
# Processed by: cddbd v1.5PL3 Copyright (c) Steve Scherf et al.
# Submitted via: ExactAudioCopy v0.95a5
#
DISCID=a70d780d
DTITLE=Goldfrapp - Felt Mountain
DYEAR=2001
DGENRE=Rock
TTITLE0=Lovely Head
TTITLE1=Paper Bag
TTITLE2=Human
TTITLE3=Pilots
TTITLE4=Deer Stop
TTITLE5=Felt Mountain
TTITLE6=Oompa Radar
TTITLE7=Utopia
TTITLE8=Horse Tears
TTITLE9=Pilot (On A Star)
TTITLE10=U.K.Girls (Physical)
TTITLE11=Human (Masseys Cro-Magnon Mix)
TTITLE12=Utopia (New Ears Mix)
EXTD=
EXTT0=
EXTT1=
EXTT2=
EXTT3=
EXTT4=
EXTT5=
EXTT6=
EXTT7=
EXTT8=
EXTT9=
EXTT10=
EXTT11=
EXTT12=
PLAYORDER=
